<?xml version="1.0" encoding="utf-8"?>
<!-- Generator: Adobe Illustrator 16.0.0, SVG Export Plug-In . SVG Version: 6.00 Build 0)  -->
<!DOCTYPE svg PUBLIC "-//W3C//DTD SVG 1.1//EN" "http://www.w3.org/Graphics/SVG/1.1/DTD/svg11.dtd">
<svg version="1.1" id="Layer_1" xmlns="http://www.w3.org/2000/svg" xmlns:xlink="http://www.w3.org/1999/xlink" x="0px" y="0px"
	 width="300px" height="300px" viewBox="0 0 300 300" enable-background="new 0 0 300 300" xml:space="preserve">
<path fill-rule="evenodd" clip-rule="evenodd" fill="#59AADE" d="M287.927,114.055c-1.861,4.148-3.624,8.168-5.464,12.153
	c-4.282,9.271-8.621,18.516-12.903,27.787c-5.852,12.673-11.673,25.359-17.505,38.041c-3.193,6.941-6.445,13.857-9.534,20.845
	c-0.913,2.065-2.089,2.814-4.382,2.654c-9.601-0.672-19.214-1.17-28.824-1.716c-11.004-0.626-22.009-1.23-33.013-1.855
	c-6.603-0.374-13.204-0.776-19.807-1.153c-8.07-0.461-16.142-0.902-24.21-1.375c-0.609-0.035-1.547,0.328-1.737-0.48
	c-0.18-0.769,0.79-0.929,1.317-1.251c11.419-6.971,22.855-13.91,34.27-20.89c3.067-1.877,2.706-1.42,1.121-4.263
	c-7.088-12.713-14.227-25.396-21.899-37.769c-1.298-2.093-1.338-2.056-2.583,0.102c-14.623,25.341-29.244,50.683-43.889,76.011
	c-2.675,4.628-2.74,4.636-7.294,2.012c-26.052-15.009-52.088-30.045-78.154-45.027c-1.503-0.863-1.723-1.635-0.858-3.118
	c9.361-16.072,18.453-32.304,28.076-48.216c6.354-10.505,13.624-20.439,22.592-28.951c5.625-5.338,11.654-10.173,19.241-12.506
	c5.558-1.708,11.326-1.556,17.055-1.663c32.039-0.599,64.081-0.489,96.123-0.451c7.699,0.008,14.626,2.381,20.507,7.396
	c3.662,3.123,6.306,7.167,9.124,11.015c7.914,10.805,15.046,22.125,21.691,33.749c0.978,1.711,1.699,1.858,3.383,0.833
	c11.923-7.273,23.917-14.43,35.89-21.622C286.632,114.121,286.989,113.829,287.927,114.055z"/>
</svg>
